<svg xmlns="http://www.w3.org/2000/svg" viewBox="0 0 50 66">
    <path fill="#8392ab" fill-rule="evenodd" d="M582.162278,90 L594.316228,94.0513167 C595.227924,94.3552155 595.227924,95.6447845 594.316228,95.9486833 L570.316228,103.948683 C570.110961,104.017106 569.889039,104.017106 569.683772,103.948683 L545.683772,95.9486833 C544.772076,95.6447845 544.772076,94.3552155 545.683772,94.0513167 L557.837722,90 L545.683772,85.9486833 C544.772076,85.6447845 544.772076,84.3552155 545.683772,84.0513167 L569.683772,76.0513167 C569.889039,75.9828944 570.110961,75.9828944 570.316228,76.0513167 L594.316228,84.0513167 C595.227924,84.3552155 595.227924,85.6447845 594.316228,85.9486833 L582.162278,90 Z M570.316228,93.9486833 C570.110961,94.0171056 569.889039,94.0171056 569.683772,93.9486833 L561,91.0540926 L549.162278,95 L570,101.945907 L590.837722,95 L579,91.0540926 L570.316228,93.9486833 Z M549.162278,85 L570,91.9459074 L590.837722,85 L570,78.0540926 L549.162278,85 Z M571,112.414214 L571,122 C571,123.333333 569,123.333333 569,122 L569,112.414214 L565.624344,115.789869 C565.23382,116.180394 564.600655,116.180394 564.210131,115.789869 C563.819606,115.399345 563.819606,114.76618 564.210131,114.375656 L569.292893,109.292893 C569.683418,108.902369 570.316582,108.902369 570.707107,109.292893 L575.707107,114.292893 C576.097631,114.683418 576.097631,115.316582 575.707107,115.707107 C575.316582,116.097631 574.683418,116.097631 574.292893,115.707107 L571,112.414214 Z M569,67.5857864 L569,58 C569,57.4477153 569.447715,57 570,57 C570.552285,57 571,57.4477153 571,58 L571,67.5857864 L574.292893,64.2928932 C574.683418,63.9023689 575.316582,63.9023689 575.707107,64.2928932 C576.097631,64.6834175 576.097631,65.3165825 575.707107,65.7071068 L570.707107,70.7071068 C570.316582,71.0976311 569.683418,71.0976311 569.292893,70.7071068 L564.210131,65.6243443 C563.819606,65.23382 563.819606,64.600655 564.210131,64.2101307 C564.600655,63.8196064 565.23382,63.8196064 565.624344,64.2101307 L569,67.5857864 Z" transform="translate(-545 -57)"/>
</svg>