<svg xmlns="http://www.w3.org/2000/svg" viewBox="0 0 128 128">
    <g>
        <path
            fill="#8392ab"
            d="M72.932,65.227c4.848-3.004,8.094-8.359,8.094-14.471c0-9.391-7.636-17.031-17.022-17.031 c-9.391,0-17.03,7.64-17.03,17.031c0,6.112,3.248,11.467,8.098,14.472c-11.345,3.757-19.556,14.458-19.556,27.048   c0,1.104,0.896,2,2,2s2-0.896,2-2c0-13.504,10.985-24.49,24.488-24.49c13.5,0,24.482,10.986,24.482,24.49c0,1.104,0.896,2,2,2   s2-0.896,2-2C92.485,79.686,84.275,68.983,72.932,65.227z M50.973,50.756c0-7.186,5.845-13.031,13.03-13.031   c7.181,0,13.022,5.846,13.022,13.031c0,7.185-5.842,13.029-13.022,13.029C56.818,63.785,50.973,57.94,50.973,50.756z"
        />
        <path
            fill="#8392ab"
            d="M102.552,11.448H25.448c-7.72,0-14,6.28-14,14v77.104c0,7.72,6.28,14,14,14h77.104c7.72,0,14-6.28,14-14V25.448   C116.552,17.729,110.271,11.448,102.552,11.448z M112.552,102.552c0,5.514-4.486,10-10,10H25.448c-5.514,0-10-4.486-10-10V25.448   c0-5.514,4.486-10,10-10h77.104c5.514,0,10,4.486,10,10V102.552z"
        />
    </g>
</svg>